<?xml version="1.0" encoding="utf-8"?>
<!-- Generator: Adobe Illustrator 18.1.1, SVG Export Plug-In . SVG Version: 6.00 Build 0)  -->
<svg version="1.1" id="Layer_1" xmlns="http://www.w3.org/2000/svg" xmlns:xlink="http://www.w3.org/1999/xlink" x="0px" y="0px"
	 viewBox="0 0 500 500" enable-background="new 0 0 500 500" xml:space="preserve">
<g>
	<g>
		<path fill="#FFFFFF" d="M475.2,185.9c-14.9-35.1-42.6-62.4-78-76.7c-17.2-6.9-35.2-10.5-53.5-10.5c-19.3,0-37.8,3.8-54.8,10.8
			c-14.4-33.1-41.3-60.9-77.4-75.5c-17.2-6.9-35.2-10.5-53.5-10.5C99.4,23.6,47.4,58.7,25.4,113c-24,59.3-5.2,125.5,41.9,164.1
			c-0.4,0.9-0.8,1.8-1.2,2.8C36.6,352.9,72,436.4,145,465.9c17.2,6.9,35.2,10.5,53.5,10.5c58.6,0,110.6-35.1,132.6-89.4
			c0.4-0.9,0.8-1.9,1.1-2.8c3.8,0.3,7.6,0.5,11.3,0.5c58.6,0,110.6-35.1,132.6-89.4C490.5,259.9,490.1,221,475.2,185.9z
			 M271.2,210.3c-6-3.5-12.3-6.7-18.9-9.3c-6.7-2.7-13.5-4.9-20.4-6.5c9.5-22.5,25.2-41,44.6-53.9
			C281.4,163,280.1,187.2,271.2,210.3z M261.6,229.7c-9.3,15.5-21.9,28.4-36.5,38.1c-3.8-17.1-3.9-35.1,0.1-52.8
			c6.4,1.4,12.7,3.4,18.9,5.9C250.3,223.4,256.1,226.3,261.6,229.7z M45.4,121.1C64,74.9,108.2,45.1,158,45.1
			c15.6,0,30.9,3,45.4,8.9c31.1,12.6,54.1,36.6,66.2,65.2c-25.8,15.6-46.6,39.4-58.5,68.8c-0.4,0.9-0.8,1.9-1.1,2.8
			c-3.8-0.3-7.6-0.5-11.4-0.5c-50.1,0-95.4,25.7-121.2,67C40.1,224.4,25.6,170,45.4,121.1z M205.6,278.3
			c-14.8,6.3-30.9,9.7-47.7,9.7c-15.6,0-30.9-3-45.4-8.9c-6.2-2.5-12-5.4-17.5-8.8c21.7-36,60.7-58.4,103.8-58.4
			c1.7,0,3.4,0,5.2,0.1C199.1,234.5,199.9,257.1,205.6,278.3z M198.6,454.9c-15.6,0-30.9-3-45.5-8.9
			c-61.4-24.8-91.5-94.6-67.7-156.3c6,3.5,12.3,6.7,18.9,9.3c17.2,6.9,35.2,10.5,53.5,10.5c19.2,0,37.8-3.8,54.8-10.8
			c14.4,33.1,41.3,60.9,77.4,75.5c6.6,2.7,13.4,4.9,20.3,6.5C291.3,425.8,247.7,454.9,198.6,454.9z M317,360.1
			c-6.4-1.4-12.7-3.4-18.9-5.9c-31-12.6-54.1-36.6-66.2-65.2c18.9-11.4,35.1-27.3,47.1-46.5C311.7,271.4,326.9,316.6,317,360.1z
			 M456.2,287.2c-18.6,46.1-62.9,75.9-112.6,75.9c-1.7,0-3.4,0-5.1-0.1c11.1-52.5-8.4-106.6-49.2-140.1c0.4-0.9,0.8-1.8,1.2-2.8
			c12-29.8,13.3-61.3,5.6-90.2c14.8-6.3,30.9-9.7,47.7-9.7c15.6,0,30.9,3,45.4,8.9c30.1,12.2,53.6,35.3,66.3,65.2
			C468.1,224.1,468.3,257.1,456.2,287.2z"/>
	</g>
</g>
</svg>
