<?xml version="1.0" encoding="utf-8"?>
<!-- Generator: Adobe Illustrator 18.1.1, SVG Export Plug-In . SVG Version: 6.00 Build 0)  -->
<svg version="1.1" id="Layer_1" xmlns="http://www.w3.org/2000/svg" xmlns:xlink="http://www.w3.org/1999/xlink" x="0px" y="0px"
	 viewBox="0 0 102.9 142.5" enable-background="new 0 0 102.9 142.5" xml:space="preserve">
<g>
	<g>
		<path fill="#F5A33A" d="M15.9,42.5v30.7c0,3.3,1.9,6.3,4.8,8l25.2,14.5V29.4c0-0.5,0-0.9,0.3-1.3L57.9,35v60.6l25.2-14.5
			c2.9-1.6,4.8-4.7,4.8-8v-1.6c0-3.3-2.8-6.3-5.7-8L61.6,51.8c-0.4-0.2-0.8-0.6-0.8-1.1V39.5c0-1,0.7-1.6,1.5-1.1l30.1,17.2
			c3.8,2.2,6.4,6.3,6.4,10.7v12.1c0,4.4-2.8,8.5-6.6,10.7l-35,20.6c0,0,0.6,0,0.6,0v14.9l25.2-14.5c2.9-1.6,4.8-4.7,4.8-8v-4.2
			c0-0.8-0.6-1.6,0.1-2l4.4-2.8c0.3-0.2,0.3-0.4,0.6-0.6l2.1-1.1c1.5-0.9,3.8,0.2,3.8,2v13.9c0,4.4-2.8,8.5-6.6,10.7l-35.9,20.6
			c-3.8,2.2-8.7,2.2-12.5,0L9.1,118.2c-3.8-2.2-5.3-6.3-5.3-10.7v-14c0-1.8,1-2.9,2.5-2l1.1,0.9C7.9,92.8,8,93,8.4,93.2l5.6,2.8
			c0.7,0.4,1.9,1.2,1.9,2v4.2c0,3.3,1.9,6.3,4.8,8l25.2,14.5v-14.9c0,0-1,0-1.1,0L9.6,89.1c-3.8-2.2-5.7-6.3-5.7-10.7V37.2
			c0-4.4,1.4-8.5,5.2-10.7L44.3,5.9c3.8-2.2,8.3-2.2,12.1,0l36,20.6c3.8,2.2,6.5,6.3,6.5,10.7v7.6c0,1.5-2.1,2.5-3.4,1.8l-8.7-4.7
			c-0.5-0.3-1-0.8-1.1-1.4c-0.5-2.5-2.2-4.7-4.5-6L54.6,19.2c-2.8-1.6-6.4-1.6-9.2,0L19.6,34.5C16.8,36.2,15.9,39.2,15.9,42.5z"/>
	</g>
</g>
</svg>
